<svg width="51" height="51" viewBox="0 0 51 51" fill="none" xmlns="http://www.w3.org/2000/svg">
<path d="M42.9146 39.9104H8.08613C6.95405 39.9091 5.86872 39.4588 5.06827 38.6582C4.26781 37.8577 3.81759 36.7723 3.81641 35.6402V14.1305C3.81759 12.9984 4.26781 11.913 5.06827 11.1125C5.86872 10.312 6.95405 9.86165 8.08613 9.86035H42.9146C44.0467 9.86165 45.132 10.312 45.9325 11.1125C46.733 11.913 47.1832 12.9984 47.1844 14.1305V35.6402C47.1832 36.7723 46.733 37.8577 45.9325 38.6582C45.132 39.4588 44.0467 39.9091 42.9146 39.9104ZM8.08613 11.4924C7.38672 11.4931 6.71618 11.7713 6.22167 12.2659C5.72715 12.7605 5.44905 13.4311 5.44841 14.1305V35.6402C5.44905 36.3396 5.72715 37.0102 6.22167 37.5048C6.71618 37.9994 7.38672 38.2776 8.08613 38.2784H42.9146C43.614 38.2776 44.2846 37.9994 44.7791 37.5048C45.2736 37.0102 45.5517 36.3396 45.5524 35.6402V14.1305C45.5517 13.4311 45.2736 12.7605 44.7791 12.2659C44.2846 11.7713 43.614 11.4931 42.9146 11.4924H8.08613Z" fill="white"/>
<path d="M25.4997 29.688C25.3008 29.6881 25.1087 29.6155 24.9595 29.484L5.29395 12.1244L6.37392 10.9004L25.4997 27.7851L44.6264 10.9024L45.7063 12.1264L26.0407 29.486C25.8912 29.6172 25.6987 29.6891 25.4997 29.688Z" fill="white"/>
<path d="M4.85059 37.3477L18.0617 22.295L19.289 23.3721L6.07785 38.4248L4.85059 37.3477Z" fill="white"/>
<path d="M31.7527 23.3567L32.9799 22.2796L46.1914 37.3326L44.9641 38.4097L31.7527 23.3567Z" fill="white"/>
</svg>
